<svg id="Component_2_1" data-name="Component 2 – 1" xmlns="http://www.w3.org/2000/svg" width="116.323" height="102.237" viewBox="0 0 116.323 102.237">
  <path id="portfolio" d="M112.936,13.632H82.017V10.224A10.235,10.235,0,0,0,71.793,0H44.53A10.235,10.235,0,0,0,34.306,10.224v3.408H3.408A3.417,3.417,0,0,0,0,17.039V92.013a10.235,10.235,0,0,0,10.224,10.224H106.1a10.235,10.235,0,0,0,10.224-10.224V17.1A3.309,3.309,0,0,0,112.936,13.632ZM41.122,10.224A3.412,3.412,0,0,1,44.53,6.816H71.793A3.412,3.412,0,0,1,75.2,10.224v3.408H41.122Zm67.065,10.224L97.6,52.2a3.4,3.4,0,0,1-3.232,2.331H75.2V51.118a3.408,3.408,0,0,0-3.408-3.408H44.53a3.408,3.408,0,0,0-3.408,3.408v3.408H21.952A3.4,3.4,0,0,1,18.719,52.2L8.136,20.447Zm-39.8,34.079v6.816H47.938V54.526Zm41.122,37.487a3.412,3.412,0,0,1-3.408,3.408H10.224a3.412,3.412,0,0,1-3.408-3.408V38.04l5.438,16.312a10.209,10.209,0,0,0,9.7,6.991h19.17V64.75a3.408,3.408,0,0,0,3.408,3.408H71.793A3.408,3.408,0,0,0,75.2,64.75V61.342h19.17a10.209,10.209,0,0,0,9.7-6.991l5.438-16.312Zm0,0"/>
  <rect id="Rectangle_10" data-name="Rectangle 10" width="22" height="11" rx="3" transform="translate(47 53)" fill="#ff8226"/>
</svg>
