<svg xmlns="http://www.w3.org/2000/svg" width="16.295" height="35.058" viewBox="0 0 16.295 35.058">
  <g id="facebook-letter-logo" transform="translate(0)">
    <g id="Group_13" data-name="Group 13">
      <path id="Path_17" data-name="Path 17" d="M161.438,0h-3.652q-4.191,0-6.02,1.989T149.936,7.85v2.46a1.177,1.177,0,0,1-1.177,1.177H147.5a1.177,1.177,0,0,0-1.177,1.177v3.687a1.177,1.177,0,0,0,1.177,1.177h1.262a1.177,1.177,0,0,1,1.177,1.177V33.881a1.177,1.177,0,0,0,1.177,1.177h4.9a1.177,1.177,0,0,0,1.177-1.177V18.707a1.177,1.177,0,0,1,1.177-1.177h2.474a1.337,1.337,0,0,0,1.3-1.171l.391-3.7a1.037,1.037,0,0,0-1.054-1.171h-3.113a1.177,1.177,0,0,1-1.177-1.177V8.467a6.611,6.611,0,0,1,.064-1.053,2.05,2.05,0,0,1,.287-.734,1.173,1.173,0,0,1,.723-.5,5.152,5.152,0,0,1,1.329-.138h1.844a1.177,1.177,0,0,0,1.177-1.177V1.177A1.176,1.176,0,0,0,161.438,0Z" transform="translate(-146.32 0)" fill="#fff"/>
    </g>
  </g>
</svg>
