<svg id="logo" xmlns="http://www.w3.org/2000/svg" width="241.859" height="40.26" viewBox="0 0 241.859 40.26">
  <path id="Path_1" data-name="Path 1" d="M12.47,0H0L14.32,20.1,0,40.26H12.47L26.8,20.1,12.47,0" fill="#ff8226" fill-rule="evenodd"/>
  <path id="Path_2" data-name="Path 2" d="M28.31,9.01h5.98L38.9,16.5l4.76-7.49h5.65l-7.52,11.2,8.17,12.27H43.82L38.7,24.36l-5.23,8.12H27.68l8.19-12.3L28.31,9.01" fill="#201600"/>
  <path id="Path_3" data-name="Path 3" d="M67.5,122l-.92,5.23.07.07a5.78,5.78,0,0,1,2-1.37,6.75,6.75,0,0,1,2.46-.41,7,7,0,0,1,3,.62,6.91,6.91,0,0,1,2.23,1.67,7.4,7.4,0,0,1,1.38,2.48,9.43,9.43,0,0,1,.48,3,7.84,7.84,0,0,1-.7,3.3,8.253,8.253,0,0,1-7.85,4.94,11.63,11.63,0,0,1-3.21-.44,8.13,8.13,0,0,1-2.71-1.36,6.89,6.89,0,0,1-1.89-2.29,7,7,0,0,1-.74-3.17h4.67A3.8,3.8,0,0,0,67,136.78a3.65,3.65,0,0,0,2.59.94,3.59,3.59,0,0,0,1.66-.37,3.81,3.81,0,0,0,1.25-1,4.46,4.46,0,0,0,.79-1.4,5,5,0,0,0,.28-1.66,5.08,5.08,0,0,0-.27-1.67,3.79,3.79,0,0,0-.78-1.37,3.4,3.4,0,0,0-1.26-.92,4.564,4.564,0,0,0-3.66.11,4.47,4.47,0,0,0-1.48,1.39H61.88l2.27-12.72H77V122H67.5" transform="translate(-10.82 -109.09)" fill="#201600"/>
  <path id="Path_2034" data-name="Path 2034" d="M8.547,0,3.758-12.346H3.717l.041.564V0H1.784V-14.7H4.748L9.346-2.6l4.6-12.094H16.9V0H14.93V-11.782l.041-.564h-.062L10.141,0ZM20.472-14.7h1.974V0H20.472Zm15.94,9.828h1.974a7.682,7.682,0,0,1-.7,2.366A5.113,5.113,0,0,1,35.771-.441a6.52,6.52,0,0,1-3.6.882,7.234,7.234,0,0,1-3.861-.972A5.98,5.98,0,0,1,25.95-3.212,9.292,9.292,0,0,1,25.173-7.1a16.036,16.036,0,0,1,.156-2.133,8.9,8.9,0,0,1,.813-2.556,5.877,5.877,0,0,1,2.112-2.376,6.789,6.789,0,0,1,3.85-.979,7.437,7.437,0,0,1,3.376.669,4.5,4.5,0,0,1,1.948,1.789,6.266,6.266,0,0,1,.766,2.52H36.222a3.826,3.826,0,0,0-1.061-2.31A4.011,4.011,0,0,0,32.1-13.484a4.615,4.615,0,0,0-2.343.549,4.094,4.094,0,0,0-1.495,1.464,6.377,6.377,0,0,0-.769,2,11.367,11.367,0,0,0-.223,2.284,8.053,8.053,0,0,0,.31,2.24,5.9,5.9,0,0,0,.936,1.915A4.489,4.489,0,0,0,30.09-1.7a4.669,4.669,0,0,0,2.164.484,4.427,4.427,0,0,0,2.158-.505,3.716,3.716,0,0,0,1.43-1.343A3.913,3.913,0,0,0,36.412-4.871ZM40.964,0V-14.7h6.511q4.871,0,4.871,3.948A4.631,4.631,0,0,1,52.069-9.2a3.564,3.564,0,0,1-.846,1.354,2.626,2.626,0,0,1-1.395.728v.067a3.038,3.038,0,0,1,1.451.969A2.821,2.821,0,0,1,51.836-4.8a17.041,17.041,0,0,1,.131,1.946,13.436,13.436,0,0,0,.12,1.841A2.5,2.5,0,0,0,52.536,0H50.459a1.863,1.863,0,0,1-.369-.659,3.3,3.3,0,0,1-.126-.772q-.023-.431-.074-1.994a5.98,5.98,0,0,0-.2-1.469,1.73,1.73,0,0,0-.766-.961,3.326,3.326,0,0,0-1.784-.385h-4.2V0Zm1.974-13.043V-7.9h4.409a4.294,4.294,0,0,0,1.218-.192,2.5,2.5,0,0,0,1.166-.779,2.451,2.451,0,0,0,.518-1.674,2.2,2.2,0,0,0-.815-1.907,4.005,4.005,0,0,0-2.379-.595ZM61.436.441A7.726,7.726,0,0,1,58.458-.1a5.929,5.929,0,0,1-2.21-1.559,6.793,6.793,0,0,1-1.361-2.466,10.552,10.552,0,0,1-.464-3.225,9.95,9.95,0,0,1,.561-3.5A6.549,6.549,0,0,1,56.52-13.3a6.128,6.128,0,0,1,2.23-1.395,7.929,7.929,0,0,1,2.687-.449,8.077,8.077,0,0,1,2.712.446,6.051,6.051,0,0,1,2.228,1.387,6.469,6.469,0,0,1,1.52,2.44,10.135,10.135,0,0,1,.554,3.515,10.634,10.634,0,0,1-.456,3.233,6.778,6.778,0,0,1-1.356,2.456A5.879,5.879,0,0,1,64.42-.1,7.8,7.8,0,0,1,61.436.441Zm0-1.661a5,5,0,0,0,2.179-.446,4.091,4.091,0,0,0,1.541-1.261,5.572,5.572,0,0,0,.9-1.941,9.8,9.8,0,0,0,.295-2.484,8.188,8.188,0,0,0-.556-3.263A4.6,4.6,0,0,0,64.425-12.5a4.416,4.416,0,0,0-1.582-.8,5.97,5.97,0,0,0-1.407-.187A4.931,4.931,0,0,0,58-12.133q-1.477,1.351-1.477,4.781a10.728,10.728,0,0,0,.354,2.7,4.97,4.97,0,0,0,1.448,2.4A4.357,4.357,0,0,0,61.436-1.22Zm8.906-3.44h1.974A3.181,3.181,0,0,0,73.4-2.2a4.492,4.492,0,0,0,3.122.982A4.171,4.171,0,0,0,79.2-1.971a2.421,2.421,0,0,0,.925-1.976,2.073,2.073,0,0,0-.454-1.4,2.713,2.713,0,0,0-1.084-.774,8.887,8.887,0,0,0-1.42-.41q-2.235-.487-3.045-.695a7.166,7.166,0,0,1-1.6-.633,3.115,3.115,0,0,1-1.233-1.159,3.67,3.67,0,0,1-.438-1.9A3.559,3.559,0,0,1,72.411-14.1a7.064,7.064,0,0,1,4-1.043,6.583,6.583,0,0,1,3.022.615A4.206,4.206,0,0,1,81.2-12.951a4.748,4.748,0,0,1,.654,2.071H79.878a2.939,2.939,0,0,0-.9-1.846,3.7,3.7,0,0,0-2.628-.759,4.69,4.69,0,0,0-1.846.328,2.661,2.661,0,0,0-1.164.884,2.106,2.106,0,0,0-.395,1.248,1.739,1.739,0,0,0,.51,1.328,2.859,2.859,0,0,0,1.177.677q.667.195,1.989.451,1.3.241,2.12.454a6.638,6.638,0,0,1,1.641.682,3.726,3.726,0,0,1,1.333,1.307,4.02,4.02,0,0,1,.515,2.135A4.521,4.521,0,0,1,81.7-1.81,3.923,3.923,0,0,1,79.855-.187a8,8,0,0,1-3.443.628A11.592,11.592,0,0,1,74.587.295a6.113,6.113,0,0,1-1.869-.643A4.272,4.272,0,0,1,71.1-1.9,5.648,5.648,0,0,1,70.342-4.66ZM86.933-8.418h7.706v1.656H86.933v5.1h8.736V0H84.959V-14.7H95.438v1.656H86.933ZM97.812,0V-14.7h6.511q4.871,0,4.871,3.948a4.631,4.631,0,0,1-.277,1.548,3.564,3.564,0,0,1-.846,1.354,2.626,2.626,0,0,1-1.395.728v.067a3.038,3.038,0,0,1,1.451.969,2.821,2.821,0,0,1,.556,1.284,17.041,17.041,0,0,1,.131,1.946,13.436,13.436,0,0,0,.12,1.841A2.5,2.5,0,0,0,109.384,0h-2.076a1.863,1.863,0,0,1-.369-.659,3.3,3.3,0,0,1-.126-.772q-.023-.431-.074-1.994a5.98,5.98,0,0,0-.2-1.469,1.73,1.73,0,0,0-.766-.961,3.326,3.326,0,0,0-1.784-.385h-4.2V0Zm1.974-13.043V-7.9H104.2a4.294,4.294,0,0,0,1.218-.192,2.5,2.5,0,0,0,1.166-.779,2.451,2.451,0,0,0,.518-1.674,2.2,2.2,0,0,0-.815-1.907,4.005,4.005,0,0,0-2.379-.595ZM116.566-2.035,120.724-14.7h2.158L117.761,0h-2.374l-5.142-14.7h2.164ZM124.585-14.7h1.974V0h-1.974Zm15.94,9.828H142.5a7.682,7.682,0,0,1-.7,2.366,5.113,5.113,0,0,1-1.912,2.064,6.52,6.52,0,0,1-3.6.882,7.234,7.234,0,0,1-3.861-.972,5.98,5.98,0,0,1-2.356-2.681,9.292,9.292,0,0,1-.777-3.884,16.036,16.036,0,0,1,.156-2.133,8.9,8.9,0,0,1,.813-2.556,5.877,5.877,0,0,1,2.112-2.376,6.789,6.789,0,0,1,3.85-.979,7.437,7.437,0,0,1,3.376.669,4.5,4.5,0,0,1,1.948,1.789,6.266,6.266,0,0,1,.766,2.52h-1.974a3.826,3.826,0,0,0-1.061-2.31,4.011,4.011,0,0,0-3.056-1.013,4.615,4.615,0,0,0-2.343.549,4.094,4.094,0,0,0-1.495,1.464,6.377,6.377,0,0,0-.769,2,11.367,11.367,0,0,0-.223,2.284,8.053,8.053,0,0,0,.31,2.24,5.9,5.9,0,0,0,.936,1.915A4.489,4.489,0,0,0,134.2-1.7a4.669,4.669,0,0,0,2.164.484,4.427,4.427,0,0,0,2.158-.505,3.716,3.716,0,0,0,1.43-1.343A3.913,3.913,0,0,0,140.525-4.871Zm6.527-3.548h7.706v1.656h-7.706v5.1h8.736V0h-10.71V-14.7h10.479v1.656h-8.506ZM157.09-4.66h1.974A3.181,3.181,0,0,0,160.146-2.2a4.492,4.492,0,0,0,3.122.982,4.171,4.171,0,0,0,2.684-.751,2.421,2.421,0,0,0,.925-1.976,2.073,2.073,0,0,0-.454-1.4,2.713,2.713,0,0,0-1.084-.774,8.887,8.887,0,0,0-1.42-.41q-2.235-.487-3.045-.695a7.166,7.166,0,0,1-1.6-.633,3.115,3.115,0,0,1-1.233-1.159,3.67,3.67,0,0,1-.438-1.9,3.559,3.559,0,0,1,1.561-3.176,7.064,7.064,0,0,1,4-1.043,6.583,6.583,0,0,1,3.022.615,4.206,4.206,0,0,1,1.764,1.574,4.748,4.748,0,0,1,.654,2.071h-1.974a2.939,2.939,0,0,0-.9-1.846,3.7,3.7,0,0,0-2.628-.759,4.69,4.69,0,0,0-1.846.328,2.661,2.661,0,0,0-1.164.884,2.106,2.106,0,0,0-.395,1.248A1.739,1.739,0,0,0,160.2-9.7a2.859,2.859,0,0,0,1.177.677q.667.195,1.989.451,1.3.241,2.12.454a6.638,6.638,0,0,1,1.641.682,3.726,3.726,0,0,1,1.333,1.307,4.02,4.02,0,0,1,.515,2.135,4.521,4.521,0,0,1-.536,2.179A3.923,3.923,0,0,1,166.6-.187a8,8,0,0,1-3.443.628,11.592,11.592,0,0,1-1.825-.146,6.113,6.113,0,0,1-1.869-.643,4.272,4.272,0,0,1-1.62-1.556A5.648,5.648,0,0,1,157.09-4.66Z" transform="translate(72.88 29)" fill="#201600"/>
</svg>
