<svg xmlns="http://www.w3.org/2000/svg" width="39.207" height="39.207" viewBox="0 0 39.207 39.207">
  <g id="instagram-2" transform="translate(0)">
    <g id="Group_15" data-name="Group 15">
      <g id="Group_14" data-name="Group 14">
        <path id="Path_19" data-name="Path 19" d="M26.955,0h-14.7A12.254,12.254,0,0,0,0,12.252v14.7A12.254,12.254,0,0,0,12.252,39.207h14.7A12.254,12.254,0,0,0,39.207,26.955v-14.7A12.254,12.254,0,0,0,26.955,0Zm8.577,26.955a8.586,8.586,0,0,1-8.577,8.577h-14.7a8.586,8.586,0,0,1-8.577-8.577v-14.7a8.586,8.586,0,0,1,8.577-8.577h14.7a8.586,8.586,0,0,1,8.577,8.577Z" fill="#fff"/>
      </g>
    </g>
    <g id="Group_17" data-name="Group 17" transform="translate(9.802 9.802)">
      <g id="Group_16" data-name="Group 16">
        <path id="Path_20" data-name="Path 20" d="M137.8,128a9.8,9.8,0,1,0,9.8,9.8A9.8,9.8,0,0,0,137.8,128Zm0,15.928a6.126,6.126,0,1,1,6.126-6.126A6.135,6.135,0,0,1,137.8,143.928Z" transform="translate(-128 -128)" fill="#fff"/>
      </g>
    </g>
    <g id="Group_19" data-name="Group 19" transform="translate(28.835 7.761)">
      <g id="Group_18" data-name="Group 18">
        <circle id="Ellipse_1" data-name="Ellipse 1" cx="1.306" cy="1.306" r="1.306" fill="#fff"/>
      </g>
    </g>
  </g>
</svg>
