<svg id="logo" xmlns="http://www.w3.org/2000/svg" viewBox="0 0 242.8 40.26"><defs><style>.cls-1{fill:#ff8226;}.cls-2,.cls-4{fill:#201600;}.cls-3,.cls-4{isolation:isolate;}.cls-4{font-size:21px;font-family:PragmaticaCyrillic, Pragmatica;}</style></defs><title>x5_micro_logo</title><path id="Path_1" data-name="Path 1" class="cls-1" d="M12.47,0H0L14.32,20.1,0,40.26H12.47L26.8,20.1,12.47,0"/><path id="Path_2" data-name="Path 2" class="cls-2" d="M28.31,9h6L38.9,16.5,43.66,9h5.65l-7.52,11.2L50,32.48H43.82L38.7,24.36l-5.23,8.12H27.68l8.19-12.3L28.31,9"/><path id="Path_3" data-name="Path 3" class="cls-2" d="M56.68,12.91l-.92,5.23.07.07a5.76,5.76,0,0,1,2-1.37,6.66,6.66,0,0,1,2.46-.41,6.72,6.72,0,0,1,5.23,2.29A7.38,7.38,0,0,1,66.9,21.2a9.56,9.56,0,0,1,.48,3,7.83,7.83,0,0,1-.7,3.3,8.26,8.26,0,0,1-7.85,4.94A11.57,11.57,0,0,1,55.62,32a8.13,8.13,0,0,1-2.71-1.36,6.82,6.82,0,0,1-2.63-5.46H55a3.84,3.84,0,0,0,1.23,2.51,3.64,3.64,0,0,0,2.59.94,3.69,3.69,0,0,0,1.66-.37,3.79,3.79,0,0,0,1.25-1,4.4,4.4,0,0,0,.79-1.4,4.91,4.91,0,0,0,.28-1.66,5.26,5.26,0,0,0-.27-1.67,3.81,3.81,0,0,0-.78-1.37,3.29,3.29,0,0,0-1.26-.92,4.53,4.53,0,0,0-3.66.11,4.47,4.47,0,0,0-1.48,1.39H51.06L53.33,9H66.18v3.89h-9.5"/><g id="MICROSERVICES" class="cls-3"><text class="cls-4" transform="translate(72.88 29)">MICROSERVICES</text></g></svg>