<svg xmlns="http://www.w3.org/2000/svg" width="115" height="70.023" viewBox="0 0 115 70.023"><defs><style>.a{fill:#ff8226;}</style></defs><g transform="translate(0 -91.208)"><g transform="translate(0 91.208)"><g transform="translate(0 0)"><path class="a" d="M114.6,144.909a2.434,2.434,0,0,0-3.4-.666L92.806,156.3H68.593V146.191H93.545a2.444,2.444,0,0,0,1.43-.493l18.985-13.709a2.454,2.454,0,0,0-2.885-3.97l-18.32,13.24H68.593V130.9H93.545a2.441,2.441,0,0,0,1.529-.468l18.985-14.966a2.476,2.476,0,0,0-3.057-3.9l-18.32,14.4H68.593v-9.862H93.545a2.626,2.626,0,0,0,1.677-.69l18.985-17.6a2.561,2.561,0,0,0,.616-2.761,2.535,2.535,0,0,0-2.293-1.627H89.009c-.025,0-.074-.444-.148-.641a2.488,2.488,0,0,0-2.293-1.578H48.844a2.478,2.478,0,0,0-1.677.666l-1.652,1.553H21.451a2.528,2.528,0,0,0-1.677.715L.789,111.722a2.561,2.561,0,0,0-.616,2.761,2.534,2.534,0,0,0,2.293,1.627H25.938v9.862H2.466a2.466,2.466,0,0,0,0,4.931H25.938V141.26H2.466a2.466,2.466,0,0,0,0,4.931H25.938V156.3H2.466a2.466,2.466,0,1,0,0,4.931h91.08a2.432,2.432,0,0,0,1.356-.468l18.985-12.427A2.493,2.493,0,0,0,114.6,144.909ZM85.286,98.358h20.958l-13.66,12.821H71.6L85.187,98.457C85.212,98.457,85.236,98.358,85.286,98.358ZM26.629,111.179H8.753l13.66-12.821h17.8L26.752,110.982C26.7,111.007,26.678,110.933,26.629,111.179Zm37.034,1.6V156.3H30.87V113.867L47.759,98.112l2.046-1.972h30.5L64.451,110.908A2.552,2.552,0,0,0,63.662,112.782Z" transform="translate(0 -91.208)"/></g></g><g transform="translate(38.143 114.705)"><g transform="translate(0 0)"><path d="M163.675,195.162h.049a4.072,4.072,0,0,1,4.068,4.068,2.466,2.466,0,1,0,4.931.049v-.049a9.106,9.106,0,0,0-6.559-8.654v-1.6a2.466,2.466,0,0,0-4.931,0v1.6A9,9,0,0,0,163.7,208.23a4.068,4.068,0,1,1-4.068,4.068,2.466,2.466,0,1,0-4.931,0,9.084,9.084,0,0,0,6.534,8.654v1.6a2.466,2.466,0,0,0,4.931,0v-1.6a9.136,9.136,0,0,0,6.559-8.654,8.986,8.986,0,0,0-9-9,4.068,4.068,0,0,1-.049-8.137Z" transform="translate(-154.7 -186.508)"/></g></g></g></svg>