<svg id="pc-monitor" xmlns="http://www.w3.org/2000/svg" width="106.769" height="92.155" viewBox="0 0 106.769 92.155">
  <g id="Group_26" data-name="Group 26">
    <path id="Path_35" data-name="Path 35" d="M98.442,19.745H8.326A8.336,8.336,0,0,0,0,28.071V91.094a8.336,8.336,0,0,0,8.326,8.326H50.239v6.188H39.223V111.9H67.546v-6.291H56.53V99.421H98.442a8.336,8.336,0,0,0,8.326-8.326V28.071A8.336,8.336,0,0,0,98.442,19.745ZM8.326,26.036H98.442a2.037,2.037,0,0,1,2.035,2.035V78.224H6.291V28.071A2.037,2.037,0,0,1,8.326,26.036ZM98.442,93.129H8.326a2.037,2.037,0,0,1-2.035-2.035V84.515h94.187v6.579A2.037,2.037,0,0,1,98.442,93.129Z" transform="translate(0 -19.745)"/>
  </g>
</svg>
