<svg id="speech-bubble" xmlns="http://www.w3.org/2000/svg" width="113.051" height="101.569" viewBox="0 0 113.051 101.569">
  <path id="Path_36" data-name="Path 36" d="M248.208,100a2.208,2.208,0,1,0,2.208,2.208A2.209,2.209,0,0,0,248.208,100Zm0,0" transform="translate(-191.683 -77.92)"/>
  <path id="Path_37" data-name="Path 37" d="M82.208,264.416A2.208,2.208,0,1,0,80,262.208,2.209,2.209,0,0,0,82.208,264.416Zm0,0" transform="translate(-62.336 -202.591)"/>
  <path id="Path_38" data-name="Path 38" d="M74.189,0C54.311,0,38,13.705,36.734,30.968,17.8,31.918,0,45.569,0,64.033A30.854,30.854,0,0,0,8.611,85.148,13.428,13.428,0,0,1,5.063,97.8a2.208,2.208,0,0,0,1.561,3.769A24.356,24.356,0,0,0,23.5,94.748a50.317,50.317,0,0,0,15.362,2.4c19.876,0,36.189-13.7,37.454-30.961a49.651,49.651,0,0,0,13.236-2.356,24.356,24.356,0,0,0,16.875,6.821,2.208,2.208,0,0,0,1.561-3.769,13.428,13.428,0,0,1-3.548-12.651,30.854,30.854,0,0,0,8.611-21.116C113.051,13.936,93.876,0,74.189,0ZM38.861,92.737a44.636,44.636,0,0,1-15.128-2.606,2.208,2.208,0,0,0-2.446.561,19.923,19.923,0,0,1-9.909,5.881A17.857,17.857,0,0,0,12.725,83.43a2.2,2.2,0,0,0-.54-.933A26.534,26.534,0,0,1,4.416,64.033c0-15.56,15.774-28.7,34.445-28.7,17.631,0,33.12,12.261,33.12,28.7C71.981,79.86,57.124,92.737,38.861,92.737Zm62-41.152a2.214,2.214,0,0,0-.54.933,17.857,17.857,0,0,0,1.346,13.142,19.917,19.917,0,0,1-9.909-5.881,2.21,2.21,0,0,0-2.446-.561,43.5,43.5,0,0,1-13.008,2.55A31.605,31.605,0,0,0,64.378,39.744h28.8a2.208,2.208,0,0,0,0-4.416H57.594a41.181,41.181,0,0,0-16.432-4.351c1.269-14.83,15.6-26.561,33.028-26.561,18.672,0,34.445,13.145,34.445,28.7A26.534,26.534,0,0,1,100.866,51.585Zm0,0" fill="#ff8226"/>
  <path id="Path_39" data-name="Path 39" d="M150.029,260H122.208a2.208,2.208,0,1,0,0,4.416h27.821a2.208,2.208,0,1,0,0-4.416Zm0,0" transform="translate(-93.504 -202.591)"/>
  <path id="Path_40" data-name="Path 40" d="M118.861,320H82.208a2.208,2.208,0,1,0,0,4.416h36.653a2.208,2.208,0,1,0,0-4.416Zm0,0" transform="translate(-62.336 -249.343)"/>
  <path id="Path_41" data-name="Path 41" d="M316.029,100H288.208a2.208,2.208,0,0,0,0,4.416h27.821a2.208,2.208,0,1,0,0-4.416Zm0,0" transform="translate(-222.851 -77.92)"/>
</svg>
