<svg id="Component_1_1" data-name="Component 1 – 1" xmlns="http://www.w3.org/2000/svg" width="141.331" height="92.749" viewBox="0 0 141.331 92.749">
  <path id="Path_25" data-name="Path 25" d="M119.248,248.81H97.165v61.832H88.332V239.977H66.249v70.666H57.416v-53H35.333v53H26.5V279.726H4.417v30.916H0v4.417H141.331v-4.417H119.248V248.81ZM22.083,310.642H8.833v-26.5h13.25Zm30.916,0H39.749V262.06H53Zm30.916,0H70.666V244.393h13.25Zm30.916,0h-13.25V253.226h13.25Zm0,0" transform="translate(0 -222.31)" fill="#ff8226"/>
  <path id="Path_27" data-name="Path 27" d="M33.638,202.476H49.147l18.96-18.96v5.711h4.417v-13.25H59.274v4.417h5.711L47.318,198.06H31.91L2.566,225.146l3,3.242Zm0,0" transform="translate(-1.858 -175.977)"/>
  <path id="Path_28" data-name="Path 28" d="M464,271.977h13.25v4.417H464Zm0,0" transform="translate(-335.919 -245.477)"/>
  <path id="Path_29" data-name="Path 29" d="M464,303.977h13.25v4.417H464Zm0,0" transform="translate(-335.919 -268.644)"/>
  <path id="Path_30" data-name="Path 30" d="M464,335.977h13.25v4.417H464Zm0,0" transform="translate(-335.919 -291.811)"/>
  <path id="Path_31" data-name="Path 31" d="M464,367.977h13.25v4.417H464Zm0,0" transform="translate(-335.919 -314.977)"/>
  <path id="Path_32" data-name="Path 32" d="M464,399.977h13.25v4.417H464Zm0,0" transform="translate(-335.919 -338.144)"/>
  <path id="Path_33" data-name="Path 33" d="M464,431.977h13.25v4.417H464Zm0,0" transform="translate(-335.919 -361.311)"/>
  <path id="Path_34" data-name="Path 34" d="M464,463.977h13.25v4.417H464Zm0,0" transform="translate(-335.919 -384.478)"/>
</svg>
