<svg xmlns="http://www.w3.org/2000/svg" width="44.182" height="25.208" viewBox="0 0 44.182 25.208">
  <g id="vk-social-network-logo" transform="translate(0)">
    <path id="Path_18" data-name="Path 18" d="M43.947,140.513a3.026,3.026,0,0,0-.15-.288,22.9,22.9,0,0,0-4.394-5.084l-.046-.046-.023-.023-.023-.023h-.023q-1.472-1.4-1.863-1.887A1.771,1.771,0,0,1,37.1,131.3a17.37,17.37,0,0,1,2.07-3.013q.944-1.219,1.5-1.955,3.98-5.291,3.451-6.763l-.137-.229a1.345,1.345,0,0,0-.713-.38A3.622,3.622,0,0,0,41.8,118.9l-6.625.046a.86.86,0,0,0-.46.012l-.3.069-.115.058-.092.069a1.022,1.022,0,0,0-.253.241,1.578,1.578,0,0,0-.229.4,37.562,37.562,0,0,1-2.462,5.176q-.851,1.426-1.565,2.473a11.9,11.9,0,0,1-1.2,1.541,8.346,8.346,0,0,1-.874.794q-.391.3-.6.253c-.138-.031-.268-.061-.391-.092a1.53,1.53,0,0,1-.517-.564,2.524,2.524,0,0,1-.265-.9q-.069-.541-.081-.932t.012-1.1q.024-.713.023-.966,0-.874.034-1.9t.058-1.621q.023-.6.023-1.265a5.316,5.316,0,0,0-.081-1.047,3.58,3.58,0,0,0-.241-.736,1.24,1.24,0,0,0-.472-.552,2.658,2.658,0,0,0-.771-.311,15.307,15.307,0,0,0-3.106-.3q-4.278-.046-5.5.552a3.1,3.1,0,0,0-.874.69q-.414.506-.115.552a2.82,2.82,0,0,1,1.955.989l.138.276a4.4,4.4,0,0,1,.322,1.058,10.676,10.676,0,0,1,.207,1.679,17.906,17.906,0,0,1,0,2.875q-.115,1.2-.219,1.863a3.731,3.731,0,0,1-.311,1.081,4.56,4.56,0,0,1-.276.506.4.4,0,0,1-.115.115,1.723,1.723,0,0,1-.621.115,1.458,1.458,0,0,1-.782-.322,5.518,5.518,0,0,1-.955-.886A11.837,11.837,0,0,1,13,127.321q-.621-1.012-1.288-2.392l-.368-.667q-.345-.644-.943-1.875T9.34,120.005a1.516,1.516,0,0,0-.552-.736l-.115-.069A1.574,1.574,0,0,0,8.3,119a2.441,2.441,0,0,0-.529-.149l-6.3.046a1.6,1.6,0,0,0-1.311.437l-.092.138a.744.744,0,0,0-.069.368,1.831,1.831,0,0,0,.138.621q1.38,3.244,3,6.257t2.818,4.853q1.2,1.841,2.438,3.474t1.645,2.093q.4.461.633.69l.575.552a13.646,13.646,0,0,0,1.622,1.323,27.666,27.666,0,0,0,2.369,1.519,12.854,12.854,0,0,0,3.025,1.219,10.46,10.46,0,0,0,3.358.38h2.645a1.832,1.832,0,0,0,1.219-.506l.092-.115a1.525,1.525,0,0,0,.172-.425,2.337,2.337,0,0,0,.081-.633,7.58,7.58,0,0,1,.149-1.783,4.686,4.686,0,0,1,.391-1.2,2.94,2.94,0,0,1,.494-.678,2,2,0,0,1,.392-.334,1.5,1.5,0,0,1,.183-.081,1.46,1.46,0,0,1,1.3.357,7.635,7.635,0,0,1,1.4,1.334q.656.794,1.576,1.783a10.826,10.826,0,0,0,1.61,1.472l.46.276a5.6,5.6,0,0,0,1.2.506,2.579,2.579,0,0,0,1.288.115l5.889-.092a2.669,2.669,0,0,0,1.357-.288,1.14,1.14,0,0,0,.575-.633,1.781,1.781,0,0,0,.012-.783A2.887,2.887,0,0,0,43.947,140.513Z" transform="translate(0 -117.748)" fill="#fff"/>
  </g>
</svg>
